HIERARCHY
ROOT Hips
{
    OFFSET 0.0 0.0 0.0
    CHANNELS 6 Xposition Yposition Zposition Zrotation Xrotation Yrotation
    JOINT RightUpLeg
    {
        OFFSET -0.1 0.0 0.0
        CHANNELS 3 Zrotation Xrotation Yrotation
        JOINT RightLeg
        {
            OFFSET 0.0 -0.45 0.0
            CHANNELS 1 Xrotation
            JOINT RightFoot
            {
                OFFSET 0.0 -0.45 0.0
                CHANNELS 0
                End Site
                {
                    OFFSET 0.0 -0.1 0.1
                }
            }
        }
    }
    JOINT LeftUpLeg
    {
        OFFSET 0.1 0.0 0.0
        CHANNELS 3 Zrotation Xrotation Yrotation
        JOINT LeftLeg
        {
            OFFSET 0.0 -0.45 0.0
            CHANNELS 1 Xrotation
            JOINT LeftFoot
            {
                OFFSET 0.0 -0.45 0.0
                CHANNELS 0
                End Site
                {
                    OFFSET 0.0 -0.1 0.1
                }
            }
        }
    }
    JOINT Spine
    {
        OFFSET 0.0 0.2 0.0
        CHANNELS 3 Zrotation Xrotation Yrotation
        End Site
        {
            OFFSET 0.0 0.5 0.0
        }
    }
}
MOTION
Frames: 51
Frame Time: 0.016667
31.4923 110.8192 868.2577 0.0000 0.0000 0.0000 -6.6417 -3.7024 -40.9924 -2.8629 7.2890 -1.2066 -8.6211 -68.4351 0.3404 0.2730 -0.5869
32.2244 110.6883 871.5817 0.0000 0.0000 0.0000 -5.6420 -1.8862 -41.6110 -4.0654 5.9315 -0.7803 -2.9768 -63.8221 1.2768 -0.0387 -0.5042
33.0524 111.1686 875.2050 0.0000 0.0000 0.0000 -4.4024 -1.2647 -42.2888 -3.4505 3.7637 -1.5812 -0.7054 -59.1923 3.7294 -1.6282 0.5531
33.5524 111.5775 878.1815 0.0000 0.0000 0.0000 -3.7429 -2.4480 -41.0796 0.2472 0.5619 -1.5149 -3.9366 -63.2697 4.1534 -1.6633 0.8076
33.4376 111.4826 879.9693 0.0000 0.0000 0.0000 -3.7290 -4.5521 -39.1289 0.6067 -1.3218 -1.2546 -9.7962 -76.3660 1.9958 -0.4252 0.3730
32.9879 111.2642 881.4033 0.0000 0.0000 0.0000 -3.6009 -6.2559 -38.8297 -1.1605 0.0939 -2.0596 -17.1676 -82.6331 0.0770 -0.0382 -0.1995
32.4763 110.9149 883.5359 0.0000 0.0000 0.0000 -3.3968 -6.9820 -44.1860 -5.2744 4.1719 -5.7515 -27.4713 -75.6082 -0.4584 -1.3804 -0.8228
32.1338 110.9602 885.3281 0.0000 0.0000 0.0000 -4.7762 -8.3703 -45.7484 -8.7921 7.1541 -6.2908 -28.3804 -75.2466 0.2465 -1.5840 -0.5923
32.0999 111.2560 887.0538 0.0000 0.0000 0.0000 -5.8046 -8.9242 -43.9653 -7.9924 9.0706 -4.5566 -23.9726 -75.0391 0.6386 -0.7740 -0.5382
32.3132 111.4429 889.1340 0.0000 0.0000 0.0000 -6.3060 -8.1356 -41.2778 -4.9060 9.5655 -2.9639 -18.0209 -73.1340 0.5246 -0.5320 -0.5128
32.7260 111.4078 891.7470 0.0000 0.0000 0.0000 -6.5617 -6.3393 -40.0095 -3.1910 8.9311 -1.8544 -12.2281 -70.2638 0.0745 -0.4397 -0.5227
33.2976 111.1926 894.8293 0.0000 0.0000 0.0000 -6.4362 -4.0203 -40.3159 -3.5099 7.7416 -1.0566 -6.1667 -65.9532 0.2903 -0.1270 -0.4763
34.0991 111.0053 898.3866 0.0000 0.0000 0.0000 -5.6086 -2.0568 -41.6250 -4.9429 6.5778 -0.9351 -0.4592 -60.4235 1.9518 -0.5383 0.0897
35.0762 110.9127 902.0893 0.0000 0.0000 0.0000 -6.0010 -2.8751 -42.0115 -3.9048 3.8388 -1.3265 2.4124 -56.0797 4.4250 -1.1123 1.8622
35.5715 110.8354 904.9731 0.0000 0.0000 0.0000 -6.0327 -4.4317 -41.1962 -0.3086 0.3812 0.5356 -1.0818 -62.6606 4.1464 -0.3681 1.1560
35.3508 110.4436 906.7291 0.0000 0.0000 0.0000 -5.6193 -6.4876 -39.9747 -0.2405 -0.3222 0.7206 -8.0958 -77.4157 1.6708 0.2820 0.2617
34.6882 110.1266 908.3936 0.0000 0.0000 0.0000 -4.9193 -8.1539 -41.5558 -1.6727 2.4459 -1.2363 -19.0941 -84.4496 -0.1392 0.2717 -0.7422
33.8624 109.7962 910.3838 0.0000 0.0000 0.0000 -4.9902 -9.7151 -45.8159 -4.7788 7.2294 -5.9413 -29.8486 -77.8178 -0.5282 -0.5501 -0.8137
33.3568 110.0001 911.9371 0.0000 0.0000 0.0000 -6.0080 -10.2159 -46.7651 -7.9034 9.9928 -6.4442 -29.2996 -77.3729 0.1818 -0.9094 -0.5239
33.2173 110.4243 913.4883 0.0000 0.0000 0.0000 -6.3540 -8.5879 -45.0166 -6.8259 10.6845 -4.6533 -23.6138 -76.3761 0.6197 -0.6621 -0.7368
33.2968 110.6827 915.5033 0.0000 0.0000 0.0000 -6.6949 -6.1752 -42.6095 -3.7150 9.6844 -3.1045 -17.5415 -74.1057 0.5347 -0.5698 -0.7735
33.5626 110.7289 918.0834 0.0000 0.0000 0.0000 -7.0476 -3.4945 -41.5694 -2.3500 8.0554 -2.0692 -11.8423 -70.9437 0.0537 -0.3722 -0.7131
34.0174 110.6666 921.1363 0.0000 0.0000 0.0000 -6.8755 -0.7726 -41.8535 -3.1579 6.3745 -1.4008 -6.0941 -66.7119 0.2686 -0.2041 -0.5888
34.7518 110.6323 924.7026 0.0000 0.0000 0.0000 -5.9378 1.2938 -43.0553 -4.9460 4.9083 -1.4844 -0.8797 -61.5007 2.0751 -0.9812 0.1957
35.5735 110.9736 928.4334 0.0000 0.0000 0.0000 -5.5302 1.0337 -43.1938 -2.7087 2.0496 -1.8838 -0.0849 -58.4796 4.4175 -1.9383 1.4424
35.8239 111.1870 931.2308 0.0000 0.0000 0.0000 -4.8836 -0.4632 -41.6610 0.7701 -0.5211 -1.6482 -4.6306 -66.4971 3.8860 -1.1717 0.9391
35.5187 110.9742 932.8412 0.0000 0.0000 0.0000 -4.6962 -2.8730 -39.7247 0.5466 -1.0384 -1.5935 -11.0979 -80.6228 1.4060 -0.0419 0.3333
34.9864 110.7236 934.3801 0.0000 0.0000 0.0000 -4.3358 -4.5300 -40.5472 -1.4897 1.5247 -2.9499 -19.8622 -84.9668 -0.2700 -0.0394 -0.4973
34.4358 110.2924 936.5450 0.0000 0.0000 0.0000 -4.3425 -5.6533 -46.0881 -5.9598 5.8713 -7.1864 -30.0403 -76.5030 -0.5065 -1.4156 -0.8678
34.0906 110.4522 938.2622 0.0000 0.0000 0.0000 -5.5886 -6.9838 -47.1521 -9.3130 8.4338 -7.2281 -29.7722 -76.5863 0.2662 -1.3794 -0.5883
34.0562 110.8201 940.0015 0.0000 0.0000 0.0000 -6.3002 -7.2556 -45.0956 -8.1018 9.7360 -5.3309 -24.8446 -76.2009 0.6366 -0.5902 -0.5636
34.2686 111.0628 942.1172 0.0000 0.0000 0.0000 -6.6743 -6.3820 -42.1253 -4.7510 9.7537 -3.6271 -18.5924 -74.1337 0.4213 -0.3292 -0.4823
34.6935 111.0979 944.7598 0.0000 0.0000 0.0000 -6.8048 -4.7165 -40.4915 -2.7694 8.6450 -2.4212 -12.7255 -71.3045 -0.1377 -0.1610 -0.4705
35.2908 110.9874 947.8733 0.0000 0.0000 0.0000 -6.3967 -2.7685 -40.3681 -2.7053 7.1742 -1.5981 -6.9443 -67.3604 -0.0126 0.1629 -0.5193
36.1104 110.9055 951.4417 0.0000 0.0000 0.0000 -5.2907 -1.1387 -41.2687 -3.9978 5.8834 -1.4738 -1.4240 -62.2104 1.5157 -0.3191 -0.1250
37.0680 111.0392 955.1879 0.0000 0.0000 0.0000 -5.0045 -1.7422 -41.4238 -2.5872 3.1845 -1.8801 0.8779 -58.2442 3.9515 -1.1953 1.2295
37.6056 110.9403 958.0626 0.0000 0.0000 0.0000 -5.1018 -3.7760 -40.2709 0.0344 -0.3622 -0.5164 -2.4129 -65.3382 3.4917 -0.4344 0.9669
37.5001 110.4898 959.8628 0.0000 0.0000 0.0000 -4.7808 -6.2068 -39.1431 -0.4265 -1.4486 -0.0979 -9.2051 -79.5664 1.0708 0.3884 0.3069
37.0293 110.1494 961.7927 0.0000 0.0000 0.0000 -3.8745 -7.5484 -41.9333 -2.4485 1.2525 -1.7025 -19.7487 -83.8912 -0.4417 0.2748 -0.7628
36.4360 109.8658 963.9632 0.0000 0.0000 0.0000 -3.9670 -9.0801 -46.4354 -6.0994 5.8667 -5.8822 -29.0170 -76.3087 -0.4040 -1.0794 -0.6999
36.1791 110.1270 965.6398 0.0000 0.0000 0.0000 -5.0698 -9.9172 -46.4272 -7.9980 8.6790 -5.3643 -27.3540 -76.5006 0.4000 -0.9381 -0.5468
36.2257 110.5087 967.4069 0.0000 0.0000 0.0000 -5.5271 -9.1548 -43.9647 -5.8525 9.7042 -3.4942 -21.5669 -75.4898 0.8286 -0.5005 -0.6015
36.4912 110.6852 969.6683 0.0000 0.0000 0.0000 -5.9193 -7.4054 -41.6818 -3.1633 9.0729 -2.1519 -15.5536 -73.1845 0.6357 -0.4534 -0.5736
36.9298 110.6525 972.4798 0.0000 0.0000 0.0000 -6.1469 -5.2074 -41.1114 -2.5976 7.7632 -1.2075 -10.0226 -70.0207 0.3156 -0.1737 -0.5881
37.5514 110.5301 975.7336 0.0000 0.0000 0.0000 -5.7886 -3.0111 -41.6943 -3.8266 6.5892 -0.6396 -4.2822 -65.5695 1.0004 0.0002 -0.3732
38.3713 110.7430 979.4023 0.0000 0.0000 0.0000 -5.0311 -1.8771 -42.6019 -4.7428 5.2673 -1.1356 0.0109 -60.0581 3.3273 -1.1840 0.7459
38.9958 111.2509 982.7411 0.0000 0.0000 0.0000 -4.6686 -2.6241 -41.7226 -0.6744 1.9784 -0.7887 -1.6853 -61.0733 4.5519 -1.4362 1.1122
38.9815 111.3107 984.8788 0.0000 0.0000 0.0000 -4.5627 -4.3640 -39.7364 0.6144 -0.0629 -0.3934 -6.9615 -73.2659 2.7152 -0.5026 0.6636
38.5244 111.1055 986.3660 0.0000 0.0000 0.0000 -4.5636 -6.2318 -38.5167 -0.4388 0.7093 -1.0586 -14.4444 -83.8493 0.5046 0.0709 0.1388
37.9521 110.7797 988.4459 0.0000 0.0000 0.0000 -4.2905 -6.9834 -42.7513 -3.5024 4.5152 -4.1834 -25.3346 -81.2796 -0.5157 -0.3020 -0.8301
37.4746 110.6410 990.4130 0.0000 0.0000 0.0000 -5.2665 -7.9665 -46.1317 -8.3523 8.1018 -7.0776 -29.1338 -75.0737 0.0312 -1.4620 -0.4743
